<?xml version="1.0" encoding="UTF-8" standalone="no"?>
<svg
   xmlns:dc="http://purl.org/dc/elements/1.1/"
   xmlns:cc="http://creativecommons.org/ns#"
   xmlns:rdf="http://www.w3.org/1999/02/22-rdf-syntax-ns#"
   xmlns:svg="http://www.w3.org/2000/svg"
   xmlns="http://www.w3.org/2000/svg"
   id="svg8"
   version="1.1"
   viewBox="0 0 285.75001 285.75001"
   height="1080"
   width="1080">
  <defs
     id="defs2">
    <marker
       orient="auto"
       refY="0"
       refX="0"
       id="Arrow1Mend"
       style="overflow:visible">
      <path
         id="path5322"
         d="M 0,0 5,-5 -12.5,0 5,5 Z"
         style="fill:#fa8f00;fill-opacity:1;fill-rule:evenodd;stroke:#fa8f00;stroke-width:1.00000003pt;stroke-opacity:1"
         transform="matrix(-0.4,0,0,-0.4,-4,0)" />
    </marker>
    <marker
       orient="auto"
       refY="0"
       refX="0"
       id="Arrow1Mend-4"
       style="overflow:visible">
      <path
         id="path5322-5"
         d="M 0,0 5,-5 -12.5,0 5,5 Z"
         style="fill:#fa8f00;fill-opacity:1;fill-rule:evenodd;stroke:#fa8f00;stroke-width:1.00000003pt;stroke-opacity:1"
         transform="matrix(-0.4,0,0,-0.4,-4,0)" />
    </marker>
  </defs>
  <metadata
     id="metadata5">
    <rdf:RDF>
      <cc:Work
         rdf:about="">
        <dc:format>image/svg+xml</dc:format>
        <dc:type
           rdf:resource="http://purl.org/dc/dcmitype/StillImage" />
        <dc:title></dc:title>
      </cc:Work>
    </rdf:RDF>
  </metadata>
  <rect
     y="-0.0035707499"
     x="0.0084436871"
     height="285.75"
     width="285.75"
     id="rect7624"
     style="fill:#c9ebfb;fill-opacity:1;stroke:none;stroke-width:18.2091732;stroke-linecap:round;stroke-miterlimit:4;stroke-dasharray:none;stroke-opacity:1;paint-order:markers stroke fill" />
  <g
     style="fill:#294270;fill-opacity:1"
     id="g8010"
     transform="matrix(0.50270836,0,0,0.50270836,14.787062,13.576257)">
    <g
       style="fill:#294270;fill-opacity:1"
       id="g8008">
      <path
         style="fill:#294270;fill-opacity:1"
         id="path8006"
         d="m 497.641,255.018 h -24.712 v -42.701 c 0,-6.208 -5.032,-11.24 -11.24,-11.24 H 395.047 C 388.675,171.261 372.769,144.116 349.6,123.836 326.44,103.564 297.408,91.445 266.887,89.106 V 75.867 h 68.143 c 6.208,0 11.24,-5.032 11.24,-11.24 V 11.24 C 346.27,5.032 341.238,0 335.03,0 h -79.383 c -6.208,0 -11.24,5.032 -11.24,11.24 v 27.725 25.663 24.535 c -30.263,2.47 -59.026,14.559 -82.007,34.674 -23.169,20.28 -39.076,47.424 -45.447,77.241 H 50.312 c -6.208,0 -11.24,5.032 -11.24,11.24 v 42.701 H 14.36 c -6.208,0 -11.24,5.032 -11.24,11.24 V 500.76 c 0,6.208 5.032,11.24 11.24,11.24 h 204.992 73.296 204.992 c 6.208,0 11.24,-5.032 11.24,-11.24 V 266.258 c 0,-6.208 -5.031,-11.24 -11.239,-11.24 z M 266.888,38.964 V 22.479 h 56.904 v 30.909 h -56.904 z m -10.887,72.197 c 54.844,0 102.574,37.841 115.961,89.917 H 140.039 c 13.389,-52.076 61.119,-89.917 115.962,-89.917 z M 61.552,223.556 h 64.812 259.275 64.812 v 31.462 H 61.552 Z m 219.857,265.965 h -50.816 v -84.252 h 50.816 z m 204.992,0 H 351.538 V 346.043 c 0,-6.208 -5.032,-11.24 -11.24,-11.24 -6.208,0 -11.24,5.032 -11.24,11.24 v 143.478 h -25.17 V 394.03 c 0,-6.208 -5.032,-11.24 -11.24,-11.24 h -73.296 c -6.208,0 -11.24,5.032 -11.24,11.24 v 95.491 h -25.17 V 346.043 c 0,-6.208 -5.032,-11.24 -11.24,-11.24 -6.208,0 -11.24,5.032 -11.24,11.24 V 489.521 H 25.6 V 277.497 h 24.713 411.376 24.713 v 212.024 z" />
    </g>
  </g>
  <g
     style="fill:#294270;fill-opacity:1"
     id="g8016"
     transform="matrix(0.50270836,0,0,0.50270836,14.787062,13.576257)">
    <g
       style="fill:#294270;fill-opacity:1"
       id="g8014">
      <path
         style="fill:#294270;fill-opacity:1"
         id="path8012"
         d="m 351.324,306.759 c -0.147,-0.719 -0.371,-1.429 -0.652,-2.102 -0.281,-0.686 -0.629,-1.338 -1.034,-1.944 -0.405,-0.618 -0.877,-1.191 -1.394,-1.708 -0.517,-0.517 -1.09,-0.989 -1.708,-1.394 -0.607,-0.405 -1.259,-0.753 -1.944,-1.034 -0.674,-0.281 -1.382,-0.495 -2.102,-0.641 -1.45,-0.292 -2.933,-0.292 -4.383,0 -0.719,0.146 -1.427,0.36 -2.102,0.641 -0.686,0.281 -1.337,0.629 -1.944,1.034 -0.618,0.405 -1.191,0.877 -1.708,1.394 -0.517,0.517 -0.989,1.09 -1.394,1.708 -0.405,0.607 -0.753,1.259 -1.034,1.944 -0.281,0.674 -0.506,1.382 -0.641,2.102 -0.146,0.719 -0.225,1.461 -0.225,2.192 0,0.731 0.079,1.472 0.225,2.203 0.135,0.708 0.36,1.416 0.641,2.102 0.281,0.674 0.629,1.326 1.034,1.933 0.405,0.618 0.877,1.191 1.394,1.708 0.517,0.517 1.09,0.989 1.708,1.405 0.607,0.405 1.259,0.753 1.944,1.034 0.674,0.281 1.383,0.495 2.102,0.641 0.719,0.146 1.461,0.214 2.192,0.214 0.731,0 1.472,-0.067 2.192,-0.214 0.72,-0.147 1.427,-0.36 2.102,-0.641 0.686,-0.281 1.338,-0.629 1.944,-1.034 0.618,-0.416 1.191,-0.888 1.708,-1.405 0.517,-0.517 0.989,-1.09 1.394,-1.708 0.405,-0.607 0.753,-1.259 1.034,-1.933 0.281,-0.686 0.506,-1.394 0.652,-2.102 0.146,-0.731 0.214,-1.472 0.214,-2.203 -10e-4,-0.731 -0.069,-1.473 -0.215,-2.192 z" />
    </g>
  </g>
  <g
     style="fill:#294270;fill-opacity:1"
     id="g8022"
     transform="matrix(0.50270836,0,0,0.50270836,14.787062,13.576257)">
    <g
       style="fill:#294270;fill-opacity:1"
       id="g8020">
      <path
         style="fill:#294270;fill-opacity:1"
         id="path8018"
         d="m 182.719,306.759 c -0.136,-0.719 -0.36,-1.429 -0.641,-2.102 -0.281,-0.686 -0.629,-1.338 -1.034,-1.944 -0.405,-0.618 -0.877,-1.191 -1.394,-1.708 -0.517,-0.517 -1.09,-0.989 -1.708,-1.394 -0.607,-0.405 -1.259,-0.753 -1.933,-1.034 -0.686,-0.281 -1.394,-0.495 -2.113,-0.641 -1.439,-0.292 -2.934,-0.292 -4.383,0 -0.719,0.146 -1.427,0.36 -2.102,0.641 -0.686,0.281 -1.337,0.629 -1.944,1.034 -0.618,0.405 -1.191,0.877 -1.708,1.394 -0.517,0.517 -0.989,1.09 -1.394,1.708 -0.405,0.607 -0.753,1.259 -1.034,1.944 -0.281,0.674 -0.506,1.382 -0.641,2.102 -0.146,0.719 -0.225,1.461 -0.225,2.192 0,2.967 1.203,5.856 3.293,7.946 0.517,0.517 1.09,0.989 1.708,1.405 0.607,0.405 1.259,0.753 1.944,1.034 0.674,0.281 1.382,0.495 2.102,0.641 0.719,0.146 1.461,0.214 2.192,0.214 0.731,0 1.472,-0.067 2.192,-0.214 0.72,-0.147 1.427,-0.36 2.113,-0.641 0.674,-0.281 1.326,-0.629 1.933,-1.034 0.618,-0.416 1.191,-0.888 1.708,-1.405 2.091,-2.091 3.293,-4.979 3.293,-7.946 10e-4,-0.731 -0.078,-1.473 -0.224,-2.192 z" />
    </g>
  </g>
  <g
     style="fill:#294270;fill-opacity:1"
     id="g8028"
     transform="matrix(0.50270836,0,0,0.50270836,14.787062,13.576257)">
    <g
       style="fill:#294270;fill-opacity:1"
       id="g8026">
      <path
         style="fill:#294270;fill-opacity:1"
         id="path8024"
         d="M 128.858,294.918 H 65.351 c -6.208,0 -11.24,5.032 -11.24,11.24 v 48.33 c 0,6.208 5.032,11.24 11.24,11.24 h 63.507 c 6.208,0 11.24,-5.032 11.24,-11.24 v -48.33 c -0.001,-6.208 -5.032,-11.24 -11.24,-11.24 z m -11.24,48.33 H 76.59 v -25.851 h 41.028 z" />
    </g>
  </g>
  <g
     style="fill:#294270;fill-opacity:1"
     id="g8034"
     transform="matrix(0.50270836,0,0,0.50270836,14.787062,13.576257)">
    <g
       style="fill:#294270;fill-opacity:1"
       id="g8032">
      <path
         style="fill:#294270;fill-opacity:1"
         id="path8030"
         d="M 128.858,395.174 H 65.351 c -6.208,0 -11.24,5.032 -11.24,11.24 v 48.33 c 0,6.208 5.032,11.24 11.24,11.24 h 63.507 c 6.208,0 11.24,-5.032 11.24,-11.24 v -48.33 c -0.001,-6.208 -5.032,-11.24 -11.24,-11.24 z m -11.24,48.33 H 76.59 v -25.851 h 41.028 z" />
    </g>
  </g>
  <g
     style="fill:#294270;fill-opacity:1"
     id="g8040"
     transform="matrix(0.50270836,0,0,0.50270836,14.787062,13.576257)">
    <g
       style="fill:#294270;fill-opacity:1"
       id="g8038">
      <path
         style="fill:#294270;fill-opacity:1"
         id="path8036"
         d="m 287.755,294.918 h -63.508 c -6.208,0 -11.24,5.032 -11.24,11.24 v 48.33 c 0,6.208 5.032,11.24 11.24,11.24 h 63.508 c 6.208,0 11.24,-5.032 11.24,-11.24 v -48.33 c 0,-6.208 -5.032,-11.24 -11.24,-11.24 z m -11.239,48.33 h -41.029 v -25.851 h 41.029 z" />
    </g>
  </g>
  <g
     style="fill:#294270;fill-opacity:1"
     id="g8046"
     transform="matrix(0.50270836,0,0,0.50270836,14.787062,13.576257)">
    <g
       style="fill:#294270;fill-opacity:1"
       id="g8044">
      <path
         style="fill:#294270;fill-opacity:1"
         id="path8042"
         d="m 446.65,294.918 h -63.507 c -6.208,0 -11.24,5.032 -11.24,11.24 v 48.33 c 0,6.208 5.032,11.24 11.24,11.24 h 63.507 c 6.208,0 11.24,-5.032 11.24,-11.24 v -48.33 c 0,-6.208 -5.032,-11.24 -11.24,-11.24 z m -11.239,48.33 h -41.028 v -25.851 h 41.028 z" />
    </g>
  </g>
  <g
     style="fill:#294270;fill-opacity:1"
     id="g8052"
     transform="matrix(0.50270836,0,0,0.50270836,14.787062,13.576257)">
    <g
       style="fill:#294270;fill-opacity:1"
       id="g8050">
      <path
         style="fill:#294270;fill-opacity:1"
         id="path8048"
         d="m 446.65,395.174 h -63.507 c -6.208,0 -11.24,5.032 -11.24,11.24 v 48.33 c 0,6.208 5.032,11.24 11.24,11.24 h 63.507 c 6.208,0 11.24,-5.032 11.24,-11.24 v -48.33 c 0,-6.208 -5.032,-11.24 -11.24,-11.24 z m -11.239,48.33 h -41.028 v -25.851 h 41.028 z" />
    </g>
  </g>
</svg>
